<svg width="124" height="21" viewBox="0 0 124 21" fill="none" xmlns="http://www.w3.org/2000/svg">
<g id="Logo">
<g id="Vector">
<path d="M65.7228 1.10522C69.3547 1.10522 72.3439 3.09172 72.3439 8.57061V17.7021H68.8405V8.85897C68.8405 5.75107 67.5227 4.08497 64.9193 4.08497C62.1551 4.08497 60.5159 6.10351 60.5159 9.4357V17.7021H57.0447V1.29747H60.0659L60.4516 3.44416C61.4802 2.16255 63.0551 1.10522 65.7228 1.10522Z" fill="#1850E2"/>
<path d="M81.4177 17.8943C76.243 17.8943 72.9967 14.5621 72.9967 9.53182C72.9967 4.46946 76.243 1.10522 81.0963 1.10522C85.8532 1.10522 89.0352 4.11701 89.1316 8.92305C89.1316 9.33958 89.0995 9.78814 89.0352 10.2367H76.6287V10.461C76.7251 13.2485 78.4929 15.0748 81.2249 15.0748C83.3462 15.0748 84.889 14.0175 85.3711 12.1912H88.8423C88.2638 15.4272 85.4996 17.8943 81.4177 17.8943ZM76.7573 7.70552H85.5318C85.2425 5.27046 83.539 3.89273 81.1284 3.89273C78.9107 3.89273 77.0144 5.36658 76.7573 7.70552Z" fill="#1850E2"/>
<path d="M90.1702 17.7021V1.29747H93.6414V17.7021H90.1702Z" fill="#1850E2"/>
<path d="M99.7118 17.7021L93.6371 1.29747H97.3655L101.897 13.9854L106.365 1.29747H110.029L103.954 17.7021H99.7118Z" fill="#1850E2"/>
<path d="M117.122 1.10522C121.493 1.10522 124 3.18784 124 7.06472V17.7021H120.979L120.689 15.3632C119.565 16.837 117.99 17.8943 115.386 17.8943C111.786 17.8943 109.376 16.1321 109.376 13.0883C109.376 9.72406 111.818 7.83368 116.447 7.83368H120.561V6.84044C120.561 5.01414 119.243 3.89273 116.961 3.89273C114.904 3.89273 113.522 4.85394 113.265 6.29575H109.858C110.211 3.09172 112.976 1.10522 117.122 1.10522ZM115.965 15.203C118.857 15.203 120.529 13.5048 120.561 10.9736V10.3969H116.254C114.101 10.3969 112.911 11.1979 112.911 12.864C112.911 14.2417 114.068 15.203 115.965 15.203Z" fill="#1850E2"/>
<path d="M39.9446 18.0062C39.6817 18.0145 39.4189 18.0299 39.156 18.03C34.3195 18.0314 29.4829 18.0296 24.6464 18.0358C24.4282 18.0361 24.3042 17.9743 24.1956 17.7719C21.5021 12.7561 18.8018 7.74418 16.1025 2.73164C15.9136 2.38075 15.7242 2.03009 15.533 1.68047C15.5043 1.62785 15.4646 1.58152 15.373 1.5429C15.3665 1.64978 15.3543 1.75666 15.3543 1.86353C15.3533 7.14656 15.3536 12.4296 15.3521 17.7126C15.3521 17.8084 15.3318 17.9043 15.3026 17.9793C15.2845 12.4299 15.2847 6.90109 15.2849 1.37233C15.548 1.3656 15.8111 1.35306 16.0742 1.353C20.9028 1.35182 25.7313 1.35333 30.5598 1.3482C30.7729 1.34797 30.8941 1.40053 31.0063 1.60967C33.8715 6.94854 36.7465 12.2819 39.6203 17.6158C39.6643 17.6974 39.7158 17.7746 39.7638 17.8539C39.7855 17.849 39.8073 17.8442 39.8291 17.8394C39.8358 17.7317 39.8483 17.6239 39.8483 17.5162C39.8493 12.2332 39.8488 6.95014 39.8515 1.66711C39.8516 1.56805 39.8875 1.469 39.9257 1.39341C39.9448 6.94666 39.9447 12.4764 39.9446 18.0062Z" fill="#1850E2"/>
<path d="M15.2637 1.36388C15.2847 6.90109 15.2845 12.4299 15.2845 17.9807C15.2068 18.0119 15.1289 18.0292 15.051 18.0292C10.1191 18.0305 5.18716 18.0304 0.255242 18.0304C0.176586 18.0304 0.0979305 18.0304 0 18.0304C0 12.4694 0 6.92954 0 1.37468C0.053202 1.36734 0.106177 1.35364 0.159153 1.35364C5.18697 1.35356 10.2148 1.35452 15.2637 1.36388Z" fill="#1850E2"/>
<path d="M39.9652 18.0164C39.9447 12.4764 39.9448 6.94666 39.9447 1.39511C39.9992 1.36647 40.054 1.35358 40.1087 1.35358C45.0931 1.35349 50.0774 1.35439 55.0831 1.38481C55.1045 6.94575 55.1046 12.4771 55.1047 18.0084C55.042 18.0157 54.9794 18.0294 54.9167 18.0294C49.9636 18.0303 45.0106 18.0302 40.0575 18.0299C40.0336 18.0299 40.0096 18.0277 39.9652 18.0164Z" fill="#1850E2"/>
<path d="M55.1235 18.0149C55.1046 12.4771 55.1045 6.94576 55.1044 1.39246C55.1482 1.39995 55.2109 1.41983 55.2309 1.46137C55.2531 1.50768 55.237 1.57369 55.237 1.63112C55.237 7.00633 55.2375 12.3815 55.2331 17.7567C55.233 17.845 55.1738 17.9331 55.1235 18.0149Z" fill="#1850E2"/>
</g>
</g>
</svg>
